#N canvas -8 0 1362 686 10;
#X obj 2047 124 bng 20 250 50 0 empty empty empty 17 7 0 10 -4034 -1
-1;
#X msg 2010 147 62;
#X obj 1990 170 s notaMIDI;
#X obj 53 874 mtof;
#X obj 48 1062 dac~;
#X obj 54 914 osc~;
#X obj 53 951 *~;
#X msg 116 965 0;
#X obj 52 847 r notaMIDI;
#X obj 2050 148 s notaON;
#X obj 2063 206 s notaOFF;
#X obj 178 811 r notaON;
#X obj 173 951 r notaOFF;
#X obj 2041 273 bng 20 250 50 0 empty empty empty 17 7 0 10 -4034 -1
-1;
#X obj 1967 315 s notaMIDI;
#X obj 2038 301 s notaON;
#X obj 2042 361 s notaOFF;
#X msg 1998 294 60;
#X obj 929 190 bng 15 250 50 0 empty empty empty 17 7 0 10 -262144
-1 -1;
#X obj 2042 331 delay 100;
#X obj 2063 178 delay 100;
#X obj 2047 92 r reC;
#X obj 2036 452 bng 20 250 50 0 empty empty empty 17 7 0 10 -4034 -1
-1;
#X obj 1979 498 s notaMIDI;
#X obj 2039 476 s notaON;
#X obj 2052 534 s notaOFF;
#X obj 2052 506 delay 100;
#X obj 2041 241 r doC;
#X obj 2036 420 r miC;
#X msg 1999 475 64;
#X obj 2222 126 bng 20 250 50 0 empty empty empty 17 7 0 10 -4034 -1
-1;
#X msg 2185 150 62;
#X obj 2165 172 s notaMIDI;
#X obj 2225 151 s notaON;
#X obj 2237 208 s notaOFF;
#X obj 2190 280 bng 20 250 50 0 empty empty empty 17 7 0 10 -4034 -1
-1;
#X obj 2117 321 s notaMIDI;
#X obj 2187 307 s notaON;
#X obj 2191 367 s notaOFF;
#X msg 2147 301 60;
#X obj 2197 448 bng 20 250 50 0 empty empty empty 17 7 0 10 -4034 -1
-1;
#X obj 2140 494 s notaMIDI;
#X obj 2200 473 s notaON;
#X obj 2212 530 s notaOFF;
#X msg 2160 472 64;
#X obj 2222 94 r reM;
#X obj 2190 247 r doM;
#X obj 2197 416 r miM;
#X obj 2353 288 bng 20 250 50 0 empty empty empty 17 7 0 10 -4034 -1
-1;
#X obj 2280 330 s notaMIDI;
#X obj 2350 316 s notaON;
#X obj 2354 376 s notaOFF;
#X msg 2310 309 60;
#X obj 2356 450 bng 20 250 50 0 empty empty empty 17 7 0 10 -4034 -1
-1;
#X obj 2299 496 s notaMIDI;
#X obj 2359 474 s notaON;
#X obj 2371 532 s notaOFF;
#X msg 2319 473 64;
#X obj 2353 256 r doL;
#X obj 2356 418 r miL;
#X obj 931 247 s reL;
#X obj 974 246 s doL;
#X obj 1027 285 s miL;
#X obj 1102 251 s reL;
#X obj 2039 606 bng 20 250 50 0 empty empty empty 17 7 0 10 -4034 -1
-1;
#X obj 1965 648 s notaMIDI;
#X obj 2036 634 s notaON;
#X obj 2040 694 s notaOFF;
#X obj 2040 664 delay 100;
#X msg 1996 627 67;
#X obj 2039 574 r solC;
#X obj 2206 607 bng 20 250 50 0 empty empty empty 17 7 0 10 -4034 -1
-1;
#X obj 2132 649 s notaMIDI;
#X obj 2203 635 s notaON;
#X obj 2207 695 s notaOFF;
#X msg 2163 628 67;
#X obj 2206 575 r solM;
#X obj 2361 616 bng 20 250 50 0 empty empty empty 17 7 0 10 -4034 -1
-1;
#X obj 2287 658 s notaMIDI;
#X obj 2358 644 s notaON;
#X obj 2362 704 s notaOFF;
#X msg 2318 637 67;
#X obj 2361 584 r solL;
#X obj 2371 130 bng 20 250 50 0 empty empty empty 17 7 0 10 -4034 -1
-1;
#X msg 2334 153 62;
#X obj 2314 176 s notaMIDI;
#X obj 2374 154 s notaON;
#X obj 2386 212 s notaOFF;
#X obj 2371 98 r reL;
#X obj 2047 779 bng 20 250 50 0 empty empty empty 17 7 0 10 -4034 -1
-1;
#X obj 1973 821 s notaMIDI;
#X obj 2044 807 s notaON;
#X obj 2048 867 s notaOFF;
#X obj 2048 837 delay 100;
#X obj 2214 780 bng 20 250 50 0 empty empty empty 17 7 0 10 -4034 -1
-1;
#X obj 2140 822 s notaMIDI;
#X obj 2211 808 s notaON;
#X obj 2215 868 s notaOFF;
#X obj 2369 789 bng 20 250 50 0 empty empty empty 17 7 0 10 -4034 -1
-1;
#X obj 2295 831 s notaMIDI;
#X obj 2366 817 s notaON;
#X obj 2370 877 s notaOFF;
#X obj 2047 747 r faC;
#X obj 2214 748 r faM;
#X obj 2369 757 r faL;
#X msg 2004 800 65;
#X msg 2171 801 65;
#X msg 2326 810 65;
#X obj 1335 291 s reM;
#X obj 1268 266 s doM;
#X obj 1203 289 s notaOFF;
#X obj 1098 305 s reC;
#X obj 1178 244 delay 500;
#X obj 1271 235 delay 450;
#X obj 1328 262 delay 450;
#X obj 2237 181 delay 450;
#X obj 2191 337 delay 450;
#X obj 2212 503 delay 450;
#X obj 2207 665 delay 450;
#X obj 2215 838 delay 450;
#X obj 1404 237 delay 450;
#X obj 1411 266 s miM;
#X obj 1473 278 delay 450;
#X obj 1480 307 s solM;
#X obj 1557 284 delay 450;
#X obj 1564 313 s faM;
#X obj 2052 939 bng 20 250 50 0 empty empty empty 17 7 0 10 -4034 -1
-1;
#X obj 1978 981 s notaMIDI;
#X obj 2049 967 s notaON;
#X obj 2053 1027 s notaOFF;
#X obj 2053 997 delay 100;
#X obj 2219 940 bng 20 250 50 0 empty empty empty 17 7 0 10 -4034 -1
-1;
#X obj 2145 982 s notaMIDI;
#X obj 2216 968 s notaON;
#X obj 2220 1028 s notaOFF;
#X obj 2374 949 bng 20 250 50 0 empty empty empty 17 7 0 10 -4034 -1
-1;
#X obj 2300 991 s notaMIDI;
#X obj 2371 977 s notaON;
#X obj 2375 1037 s notaOFF;
#X obj 2220 998 delay 450;
#X obj 2052 907 r do#C;
#X obj 2219 908 r do#M;
#X obj 2374 917 r do#L;
#X msg 2009 961 72;
#X msg 2176 961 72;
#X msg 2331 970 72;
#X obj 1600 170 s do#C;
#X obj 1593 141 delay 450;
#X obj 1644 235 s faM;
#X obj 1637 206 delay 100;
#X obj 2047 1099 bng 20 250 50 0 empty empty empty 17 7 0 10 -4034
-1 -1;
#X obj 1990 1145 s notaMIDI;
#X obj 2050 1123 s notaON;
#X obj 2063 1181 s notaOFF;
#X obj 2063 1153 delay 100;
#X obj 2222 1101 bng 20 250 50 0 empty empty empty 17 7 0 10 -4034
-1 -1;
#X obj 2165 1147 s notaMIDI;
#X obj 2225 1126 s notaON;
#X obj 2237 1183 s notaOFF;
#X obj 2371 1105 bng 20 250 50 0 empty empty empty 17 7 0 10 -4034
-1 -1;
#X obj 2314 1151 s notaMIDI;
#X obj 2374 1129 s notaON;
#X obj 2386 1187 s notaOFF;
#X obj 2237 1156 delay 450;
#X obj 2047 1067 r mibC;
#X obj 2222 1069 r mibM;
#X obj 2371 1073 r mibL;
#X msg 2010 1122 63;
#X msg 2185 1125 63;
#X msg 2334 1128 63;
#X obj 1663 314 s mibL;
#X obj 1663 283 delay 450;
#X obj 1716 388 s reL;
#X obj 2386 184 delay 1450;
#X obj 2354 346 delay 1450;
#X obj 2371 504 delay 1450;
#X obj 2362 674 delay 1450;
#X obj 2370 847 delay 1450;
#X obj 2375 1007 delay 1450;
#X obj 2386 1159 delay 1450;
#X obj 977 215 delay 1450;
#X obj 1025 236 delay 1450;
#X obj 1105 220 delay 1450;
#X obj 1101 273 delay 1450;
#X obj 1716 357 delay 1450;
#X obj 986 576 bng 15 250 50 0 empty empty empty 17 7 0 10 -262144
-1 -1;
#X obj 2046 1260 bng 20 250 50 0 empty empty empty 17 7 0 10 -4034
-1 -1;
#X obj 1989 1306 s notaMIDI;
#X obj 2049 1284 s notaON;
#X obj 2062 1342 s notaOFF;
#X obj 2062 1314 delay 100;
#X obj 2221 1262 bng 20 250 50 0 empty empty empty 17 7 0 10 -4034
-1 -1;
#X obj 2164 1308 s notaMIDI;
#X obj 2224 1287 s notaON;
#X obj 2236 1344 s notaOFF;
#X obj 2370 1266 bng 20 250 50 0 empty empty empty 17 7 0 10 -4034
-1 -1;
#X obj 2313 1312 s notaMIDI;
#X obj 2373 1290 s notaON;
#X obj 2385 1348 s notaOFF;
#X obj 2236 1317 delay 450;
#X obj 2385 1320 delay 1450;
#X obj 2046 1228 r sibC;
#X obj 2221 1230 r sibM;
#X obj 2370 1234 r sibL;
#X msg 2009 1283 70;
#X msg 2184 1286 70;
#X msg 2333 1289 70;
#X obj 983 626 s sibM;
#X obj 1069 591 delay 450;
#X obj 2038 1422 bng 20 250 50 0 empty empty empty 17 7 0 10 -4034
-1 -1;
#X obj 1981 1468 s notaMIDI;
#X obj 2041 1446 s notaON;
#X obj 2054 1504 s notaOFF;
#X obj 2054 1476 delay 100;
#X obj 2213 1424 bng 20 250 50 0 empty empty empty 17 7 0 10 -4034
-1 -1;
#X obj 2156 1470 s notaMIDI;
#X obj 2216 1449 s notaON;
#X obj 2228 1506 s notaOFF;
#X obj 2362 1428 bng 20 250 50 0 empty empty empty 17 7 0 10 -4034
-1 -1;
#X obj 2305 1474 s notaMIDI;
#X obj 2365 1452 s notaON;
#X obj 2377 1510 s notaOFF;
#X obj 2228 1479 delay 450;
#X obj 2377 1482 delay 1450;
#X obj 2038 1390 r laC;
#X obj 2213 1392 r laM;
#X obj 2362 1396 r laL;
#X msg 2001 1445 69;
#X msg 2176 1448 69;
#X msg 2325 1451 69;
#X obj 2037 1577 bng 20 250 50 0 empty empty empty 17 7 0 10 -4034
-1 -1;
#X obj 1980 1623 s notaMIDI;
#X obj 2040 1601 s notaON;
#X obj 2053 1659 s notaOFF;
#X obj 2053 1631 delay 100;
#X obj 2212 1579 bng 20 250 50 0 empty empty empty 17 7 0 10 -4034
-1 -1;
#X obj 2155 1625 s notaMIDI;
#X obj 2215 1604 s notaON;
#X obj 2227 1661 s notaOFF;
#X obj 2361 1583 bng 20 250 50 0 empty empty empty 17 7 0 10 -4034
-1 -1;
#X obj 2304 1629 s notaMIDI;
#X obj 2364 1607 s notaON;
#X obj 2376 1665 s notaOFF;
#X obj 2227 1634 delay 450;
#X obj 2376 1637 delay 1450;
#X obj 2037 1545 r labC;
#X obj 2212 1547 r labM;
#X obj 2361 1551 r labL;
#X msg 2000 1600 68;
#X msg 2175 1603 68;
#X msg 2324 1606 68;
#X obj 1070 627 s laM;
#X obj 1153 587 delay 450;
#X obj 1154 623 s solM;
#X obj 1222 602 delay 450;
#X obj 1346 602 delay 450;
#X obj 1347 638 s laM;
#X obj 1385 655 delay 450;
#X obj 1386 691 s miM;
#X obj 1448 459 delay 450;
#X obj 1449 495 s solM;
#X obj 1472 549 delay 450;
#X obj 1473 585 s solM;
#X obj 1495 634 delay 450;
#X obj 1496 670 s reM;
#X obj 1481 726 delay 450;
#X obj 1467 787 s faL;
#X obj 2311 1875 bng 20 250 50 0 empty empty empty 17 7 0 10 -4034
-1 -1;
#X obj 2237 1917 s notaMIDI;
#X obj 2308 1903 s notaON;
#X obj 2312 1963 s notaOFF;
#X obj 2312 1933 delay 450;
#X obj 2311 1843 r solbM;
#X msg 2268 1896 66;
#X obj 1223 638 s solbM;
#X obj 1275 667 delay 450;
#X obj 1276 703 s solM;
#X obj 983 817 bng 15 250 50 0 empty empty empty 17 7 0 10 -262144
-1 -1;
#X obj 983 891 s laM;
#X obj 1025 824 delay 450;
#X obj 1026 860 s solM;
#X obj 1124 834 delay 450;
#X obj 1125 870 s faM;
#X obj 1223 843 delay 450;
#X obj 2118 1890 bng 20 250 50 0 empty empty empty 17 7 0 10 -4034
-1 -1;
#X obj 2061 1936 s notaMIDI;
#X obj 2121 1915 s notaON;
#X obj 2133 1972 s notaOFF;
#X obj 2133 1945 delay 450;
#X obj 2118 1858 r rebM;
#X msg 2081 1914 61;
#X obj 1224 879 s miM;
#X obj 1296 845 delay 450;
#X obj 1297 881 s faM;
#X obj 1347 881 delay 450;
#X obj 1348 917 s solM;
#X obj 1406 918 delay 450;
#X obj 1407 954 s reM;
#X obj 1479 911 delay 450;
#X obj 1479 943 s faM;
#X obj 1572 923 delay 450;
#X obj 1572 955 s faM;
#X obj 1654 941 delay 450;
#X obj 1147 983 s miM;
#X obj 1214 968 delay 450;
#X obj 1215 1004 s miM;
#X obj 1273 1003 delay 450;
#X obj 1274 1039 s laM;
#X obj 1361 1014 delay 450;
#X obj 1362 1050 s labM;
#X obj 1419 1049 delay 450;
#X obj 978 753 r parte3;
#X obj 1003 538 r parte2;
#X obj 928 158 r parte1;
#X obj 100 120 bng 100 250 50 0 empty empty empty 17 7 0 10 -159808
-1 -1;
#X obj 97 245 s parte1;
#X obj 1420 1085 s solM;
#X obj 1487 1060 delay 450;
#X obj 1488 1096 s solM;
#X text 2035 17 Estas son las notas musicales necesarias para componer
la primer pieza del Caretaker;
#X text 927 83 Secuencia musical de la primera parte;
#X text 969 491 Secuencia musical de la segunda parte;
#X text 963 713 Secuencia musical de la tercera parte;
#X obj 1005 1131 bng 15 250 50 0 empty empty empty 17 7 0 10 -262144
-1 -1;
#X obj 1007 1188 s reL;
#X obj 1053 1186 s doL;
#X obj 1113 1218 s miL;
#X obj 1056 1155 delay 1450;
#X obj 1113 1189 delay 1450;
#X obj 1178 1212 delay 1450;
#X obj 1232 1265 s miC;
#X obj 1175 1243 s reC;
#X obj 1291 1291 s reL;
#X obj 1235 1234 delay 100;
#X obj 1294 1259 delay 100;
#X obj 1494 1266 s reM;
#X obj 1487 1237 delay 450;
#X obj 1534 1260 delay 450;
#X obj 1541 1289 s miM;
#X obj 1414 1357 delay 450;
#X obj 1421 1386 s solM;
#X obj 1468 1381 delay 450;
#X obj 1475 1410 s faM;
#X obj 1522 1402 delay 450;
#X obj 1537 1438 s do#M;
#X obj 1344 1326 s notaOFF;
#X obj 1346 1289 delay 1450;
#X obj 1424 1305 s doM;
#X obj 1423 1271 delay 550;
#X obj 2030 1731 bng 20 250 50 0 empty empty empty 17 7 0 10 -4034
-1 -1;
#X obj 1973 1777 s notaMIDI;
#X obj 2033 1755 s notaON;
#X obj 2046 1813 s notaOFF;
#X obj 2046 1785 delay 100;
#X obj 2205 1733 bng 20 250 50 0 empty empty empty 17 7 0 10 -4034
-1 -1;
#X obj 2148 1779 s notaMIDI;
#X obj 2223 1763 s notaON;
#X obj 2220 1815 s notaOFF;
#X obj 2354 1737 bng 20 250 50 0 empty empty empty 17 7 0 10 -4034
-1 -1;
#X obj 2297 1783 s notaMIDI;
#X obj 2357 1761 s notaON;
#X obj 2369 1819 s notaOFF;
#X obj 2220 1788 delay 450;
#X obj 2369 1791 delay 1450;
#X obj 2030 1699 r siC;
#X obj 2205 1701 r siM;
#X obj 2354 1705 r siL;
#X msg 1993 1754 71;
#X msg 2168 1757 71;
#X msg 2317 1760 71;
#X obj 1584 1419 delay 450;
#X obj 1588 1462 s siM;
#X obj 1642 1440 delay 450;
#X obj 1644 1485 s sibL;
#X obj 1691 1477 delay 1450;
#X obj 1691 1508 s laL;
#X obj 765 1488 bng 15 250 50 0 empty empty empty 17 7 0 10 -262144
-1 -1;
#X obj 999 1572 s solM;
#X obj 1505 1763 s faM;
#X obj 1068 1559 delay 450;
#X obj 1069 1595 s laC;
#X obj 1110 1585 delay 100;
#X obj 1108 1610 s laC;
#X obj 1146 1609 delay 100;
#X obj 1148 1640 s laC;
#X obj 1312 1674 delay 100;
#X obj 1366 1701 delay 100;
#X obj 1263 1652 delay 100;
#X obj 1261 1676 s solC;
#X obj 1315 1703 s solC;
#X obj 1368 1732 s solC;
#X obj 1504 1727 delay 100;
#X obj 1198 1635 delay 100;
#X obj 1200 1666 s laC;
#X obj 1436 1714 delay 100;
#X obj 1438 1745 s solC;
#X obj 1837 1713 s solM;
#X obj 1860 1767 delay 450;
#X obj 1861 1803 s solM;
#X obj 1883 1852 delay 450;
#X obj 1884 1888 s reM;
#X obj 1817 1905 delay 450;
#X obj 1575 1748 delay 450;
#X obj 1704 1909 s faC;
#X obj 1836 1677 delay 100;
#X obj 1576 1800 s faM;
#X obj 1637 1789 delay 450;
#X obj 1638 1841 s faM;
#X obj 765 1562 s laC;
#X obj 997 1539 delay 100;
#X obj 796 1513 delay 100;
#X obj 798 1544 s laC;
#X obj 858 1539 delay 100;
#X obj 860 1570 s laC;
#X obj 1703 1857 delay 450;
#X obj 919 1566 delay 100;
#X obj 921 1604 s laC;
#X obj 782 1721 bng 15 250 50 0 empty empty empty 17 7 0 10 -262144
-1 -1;
#X obj 939 1754 delay 450;
#X obj 897 1828 s reM;
#X obj 939 1777 s reM;
#X obj 1037 1740 delay 450;
#X obj 1107 1779 delay 450;
#X obj 1033 1792 s laM;
#X obj 1107 1802 s laM;
#X obj 1196 1801 s labM;
#X obj 1194 1779 delay 450;
#X obj 1260 1850 s labM;
#X obj 1258 1828 delay 450;
#X obj 1317 1845 delay 450;
#X obj 1071 1848 delay 450;
#X obj 1135 1888 delay 450;
#X obj 1276 1964 delay 450;
#X obj 1320 1866 s miM;
#X obj 1362 1879 delay 450;
#X obj 1364 1901 s solM;
#X obj 1077 1888 s sibM;
#X obj 1210 1941 delay 450;
#X obj 1139 1915 s laM;
#X obj 1212 1961 s solM;
#X obj 1278 1986 s reM;
#X obj 1311 2010 delay 450;
#X obj 1312 2037 s notaOFF;
#X obj 1380 2056 s reM;
#X obj 1453 2054 delay 450;
#X obj 1455 2077 s doM;
#X obj 1378 2033 delay 10;
#X obj 1817 443 s parte2;
#X obj 1816 404 delay 1800;
#X obj 1560 838 s parte3;
#X obj 1560 798 delay 1800;
#X obj 1568 1131 s parte4;
#X obj 1005 1064 r parte4;
#X obj 1568 1091 delay 450;
#X obj 1737 1571 s parte5;
#X obj 766 1443 r parte5;
#X obj 1737 1531 delay 1500;
#X obj 784 1657 r parte6;
#X obj 840 1787 delay 450;
#X obj 783 1776 s doM;
#X obj 840 1810 s doM;
#X obj 898 1807 delay 450;
#X obj 1816 1949 s faL;
#X obj 1845 1976 delay 1450;
#X obj 1844 2020 s reM;
#X obj 1754 2014 delay 450;
#X obj 1800 2106 s parte6;
#X obj 1754 2042 s reM;
#X obj 1802 2065 delay 450;
#X obj 1531 2076 delay 450;
#X obj 101 295 hsl 128 15 0 127 0 0 empty empty empty -2 -8 0 10 -262144
-1 -1 9100 1;
#X obj 99 327 s vol;
#X obj 297 839 r vol;
#X floatatom 242 912 5 0 0 0 - - -;
#X obj 294 869 / 1000;
#X obj 550 916 i;
#X obj 589 916 + 1, f 4;
#X obj 565 825 r reset;
#X msg 565 863 0;
#X floatatom 560 962 5 0 0 0 - - -;
#X obj 474 831 r vuelta;
#X obj 1533 2105 s vuelta;
#X obj 483 1001 sel 0;
#X obj 486 1048 s parte1;
#X obj 602 1005 sel 1;
#X obj 125 1008 r apagar;
#X msg 120 1031 0;
#X obj 602 1043 s apagar;
#X obj 669 1044 s reset;
#X text 135 163 PLAY;
#X text 526 94 The Caretaker - It's a burning memory;
#X text 247 294 Control del volumen;
#X text 158 242 Al darle al botón \, se reproducirá la canción;
#X text 469 119 Que un ser humano con el intelecto promedio se introduzca
día a día en las aguas negras del estrés \, la infatuación de los
amores modernos y las cimas y simas de la depresión \, parece una
labor \, honestamente \, imposible. El escenario suena tormentoso.
Pero ocurre. Nos ocurre a la mayoría: a veces como un mal necesario
provocado por el organismo \; otras veces \, como una función suicida
de la mente para extirpar lo que hace daño \, y poder volver a nacer
a partir de la experiencia. Sin lugar a dudas se escucha poco gratificante
\, pero no deja de ser \, en ambos casos \, una respuesta inmunológica
frente a la estimulada realidad que compartimos. En este sentido \,
explorar la memoria (y su paradoja \, el olvido) mediante música puede
producir un efecto contrario (sorpresivamente agradable) cuando las
preocupaciones y los pensamientos obsesivos detonan los ya mencionados
síntomas de época. Acudir a pasajes sonoros mientras se recorren
partes de la memoria valiosas o \, en su caso \, extirpar dicha memoria
para reconfigurar la mente \, es precisamente el tema central de la
música de James Leyland Kirby \, conocido en la escena experimental
como The Caretaker. El tiempo \, la memoria y hasta la melancolía
son las fuerzas que aureolan el sonido de The Caretaker \, diseñado
para satisfacer las expectativas de quien desea escuchar nada más
que una calma interior. O quien necesita \, de una vez por todas \,
olvidar. Y a propósito del olvido \, The Caretaker ha estado trabajando
en un estado mental a partir del sonido: la demencia (el olvido o la
extracción de recuerdos). Everywhere at the end of time (En todas
partes al final del tiempo) es su último trabajo \, una serie de cuatro
álbumes de larga duración que exploran la demencia \, en su proceso
de avance y en su totalidad. Cada álbum revela una etapa clave en
la progresión \, pérdida y desintegración de la memoria \, cayendo
poco a poco en el abismo de la completa pérdida y la nada. La nada
como un estado delicioso \, donde es posible poner la mente en blanco
y \, quizá \, y hasta reconfigurarla a lo largo del proceso. La obra
acá representada \, "It's a burning memory" \, es tan solo la primer
pieza musical del primer album del artista. Es \, en otras palabras
\, las puertas al descenso;
#X text 916 1021 Secuencia musical de la cuarta parte;
#X text 766 1423 Secuencia musical de la quinta parte;
#X text 791 1638 Secuencia musical de la sexta parte;
#X text 1945 80;
#X text 54 748 Esto ejecuta las notas;
#X text 462 760 Esto sirve para que se reproduzca solo 2 veces la canción
;
#X text 74 438 https://www.youtube.com/watch?v=SKBlaMbx0Qo;
#X text 74 416 Link de referencia:;
#X connect 0 0 1 0;
#X connect 0 0 9 0;
#X connect 0 0 20 0;
#X connect 1 0 2 0;
#X connect 3 0 5 0;
#X connect 5 0 6 0;
#X connect 6 0 4 0;
#X connect 6 0 4 1;
#X connect 7 0 6 1;
#X connect 8 0 3 0;
#X connect 11 0 473 0;
#X connect 12 0 7 0;
#X connect 13 0 17 0;
#X connect 13 0 15 0;
#X connect 13 0 19 0;
#X connect 17 0 14 0;
#X connect 18 0 60 0;
#X connect 18 0 180 0;
#X connect 19 0 16 0;
#X connect 20 0 10 0;
#X connect 21 0 0 0;
#X connect 22 0 29 0;
#X connect 22 0 24 0;
#X connect 22 0 26 0;
#X connect 26 0 25 0;
#X connect 27 0 13 0;
#X connect 28 0 22 0;
#X connect 29 0 23 0;
#X connect 30 0 31 0;
#X connect 30 0 33 0;
#X connect 30 0 115 0;
#X connect 31 0 32 0;
#X connect 35 0 39 0;
#X connect 35 0 37 0;
#X connect 35 0 116 0;
#X connect 39 0 36 0;
#X connect 40 0 44 0;
#X connect 40 0 42 0;
#X connect 40 0 117 0;
#X connect 44 0 41 0;
#X connect 45 0 30 0;
#X connect 46 0 35 0;
#X connect 47 0 40 0;
#X connect 48 0 52 0;
#X connect 48 0 50 0;
#X connect 48 0 174 0;
#X connect 52 0 49 0;
#X connect 53 0 57 0;
#X connect 53 0 55 0;
#X connect 53 0 175 0;
#X connect 57 0 54 0;
#X connect 58 0 48 0;
#X connect 59 0 53 0;
#X connect 64 0 69 0;
#X connect 64 0 66 0;
#X connect 64 0 68 0;
#X connect 68 0 67 0;
#X connect 69 0 65 0;
#X connect 70 0 64 0;
#X connect 71 0 75 0;
#X connect 71 0 73 0;
#X connect 71 0 118 0;
#X connect 75 0 72 0;
#X connect 76 0 71 0;
#X connect 77 0 81 0;
#X connect 77 0 79 0;
#X connect 77 0 176 0;
#X connect 81 0 78 0;
#X connect 82 0 77 0;
#X connect 83 0 84 0;
#X connect 83 0 86 0;
#X connect 83 0 173 0;
#X connect 84 0 85 0;
#X connect 88 0 83 0;
#X connect 89 0 105 0;
#X connect 89 0 91 0;
#X connect 89 0 93 0;
#X connect 93 0 92 0;
#X connect 94 0 96 0;
#X connect 94 0 119 0;
#X connect 94 0 106 0;
#X connect 98 0 107 0;
#X connect 98 0 100 0;
#X connect 98 0 177 0;
#X connect 102 0 89 0;
#X connect 103 0 94 0;
#X connect 104 0 98 0;
#X connect 105 0 90 0;
#X connect 106 0 95 0;
#X connect 107 0 99 0;
#X connect 112 0 110 0;
#X connect 112 0 113 0;
#X connect 113 0 109 0;
#X connect 113 0 114 0;
#X connect 114 0 108 0;
#X connect 114 0 120 0;
#X connect 115 0 34 0;
#X connect 116 0 38 0;
#X connect 117 0 43 0;
#X connect 118 0 74 0;
#X connect 119 0 97 0;
#X connect 120 0 121 0;
#X connect 120 0 122 0;
#X connect 122 0 123 0;
#X connect 122 0 124 0;
#X connect 124 0 125 0;
#X connect 124 0 147 0;
#X connect 126 0 143 0;
#X connect 126 0 128 0;
#X connect 126 0 130 0;
#X connect 130 0 129 0;
#X connect 131 0 144 0;
#X connect 131 0 133 0;
#X connect 131 0 139 0;
#X connect 135 0 145 0;
#X connect 135 0 137 0;
#X connect 135 0 178 0;
#X connect 139 0 134 0;
#X connect 140 0 126 0;
#X connect 141 0 131 0;
#X connect 142 0 135 0;
#X connect 143 0 127 0;
#X connect 144 0 132 0;
#X connect 145 0 136 0;
#X connect 147 0 146 0;
#X connect 147 0 149 0;
#X connect 149 0 148 0;
#X connect 149 0 171 0;
#X connect 150 0 167 0;
#X connect 150 0 152 0;
#X connect 150 0 154 0;
#X connect 154 0 153 0;
#X connect 155 0 168 0;
#X connect 155 0 157 0;
#X connect 155 0 163 0;
#X connect 159 0 169 0;
#X connect 159 0 161 0;
#X connect 159 0 179 0;
#X connect 163 0 158 0;
#X connect 164 0 150 0;
#X connect 165 0 155 0;
#X connect 166 0 159 0;
#X connect 167 0 151 0;
#X connect 168 0 156 0;
#X connect 169 0 160 0;
#X connect 171 0 170 0;
#X connect 171 0 184 0;
#X connect 173 0 87 0;
#X connect 174 0 51 0;
#X connect 175 0 56 0;
#X connect 176 0 80 0;
#X connect 177 0 101 0;
#X connect 178 0 138 0;
#X connect 179 0 162 0;
#X connect 180 0 61 0;
#X connect 180 0 181 0;
#X connect 181 0 62 0;
#X connect 181 0 182 0;
#X connect 182 0 63 0;
#X connect 182 0 183 0;
#X connect 183 0 111 0;
#X connect 183 0 112 0;
#X connect 184 0 172 0;
#X connect 184 0 448 0;
#X connect 185 0 207 0;
#X connect 185 0 208 0;
#X connect 186 0 204 0;
#X connect 186 0 188 0;
#X connect 186 0 190 0;
#X connect 190 0 189 0;
#X connect 191 0 205 0;
#X connect 191 0 193 0;
#X connect 191 0 199 0;
#X connect 195 0 206 0;
#X connect 195 0 197 0;
#X connect 195 0 200 0;
#X connect 199 0 194 0;
#X connect 200 0 198 0;
#X connect 201 0 186 0;
#X connect 202 0 191 0;
#X connect 203 0 195 0;
#X connect 204 0 187 0;
#X connect 205 0 192 0;
#X connect 206 0 196 0;
#X connect 208 0 251 0;
#X connect 208 0 252 0;
#X connect 209 0 227 0;
#X connect 209 0 211 0;
#X connect 209 0 213 0;
#X connect 213 0 212 0;
#X connect 214 0 228 0;
#X connect 214 0 216 0;
#X connect 214 0 222 0;
#X connect 218 0 229 0;
#X connect 218 0 220 0;
#X connect 218 0 223 0;
#X connect 222 0 217 0;
#X connect 223 0 221 0;
#X connect 224 0 209 0;
#X connect 225 0 214 0;
#X connect 226 0 218 0;
#X connect 227 0 210 0;
#X connect 228 0 215 0;
#X connect 229 0 219 0;
#X connect 230 0 248 0;
#X connect 230 0 232 0;
#X connect 230 0 234 0;
#X connect 234 0 233 0;
#X connect 235 0 249 0;
#X connect 235 0 237 0;
#X connect 235 0 243 0;
#X connect 239 0 250 0;
#X connect 239 0 241 0;
#X connect 239 0 244 0;
#X connect 243 0 238 0;
#X connect 244 0 242 0;
#X connect 245 0 230 0;
#X connect 246 0 235 0;
#X connect 247 0 239 0;
#X connect 248 0 231 0;
#X connect 249 0 236 0;
#X connect 250 0 240 0;
#X connect 252 0 253 0;
#X connect 252 0 254 0;
#X connect 254 0 274 0;
#X connect 254 0 275 0;
#X connect 255 0 256 0;
#X connect 255 0 257 0;
#X connect 257 0 258 0;
#X connect 257 0 259 0;
#X connect 259 0 260 0;
#X connect 259 0 261 0;
#X connect 261 0 262 0;
#X connect 261 0 263 0;
#X connect 263 0 264 0;
#X connect 263 0 265 0;
#X connect 265 0 266 0;
#X connect 265 0 450 0;
#X connect 267 0 273 0;
#X connect 267 0 269 0;
#X connect 267 0 271 0;
#X connect 271 0 270 0;
#X connect 272 0 267 0;
#X connect 273 0 268 0;
#X connect 275 0 276 0;
#X connect 275 0 255 0;
#X connect 277 0 278 0;
#X connect 277 0 279 0;
#X connect 279 0 280 0;
#X connect 279 0 281 0;
#X connect 281 0 282 0;
#X connect 281 0 283 0;
#X connect 283 0 291 0;
#X connect 283 0 292 0;
#X connect 284 0 290 0;
#X connect 284 0 286 0;
#X connect 284 0 288 0;
#X connect 288 0 287 0;
#X connect 289 0 284 0;
#X connect 290 0 285 0;
#X connect 292 0 293 0;
#X connect 292 0 294 0;
#X connect 294 0 295 0;
#X connect 294 0 296 0;
#X connect 296 0 297 0;
#X connect 296 0 298 0;
#X connect 298 0 299 0;
#X connect 298 0 300 0;
#X connect 300 0 301 0;
#X connect 300 0 302 0;
#X connect 302 0 303 0;
#X connect 302 0 304 0;
#X connect 304 0 305 0;
#X connect 304 0 306 0;
#X connect 306 0 307 0;
#X connect 306 0 308 0;
#X connect 308 0 309 0;
#X connect 308 0 310 0;
#X connect 310 0 316 0;
#X connect 310 0 317 0;
#X connect 311 0 277 0;
#X connect 312 0 185 0;
#X connect 313 0 18 0;
#X connect 314 0 315 0;
#X connect 317 0 318 0;
#X connect 317 0 453 0;
#X connect 323 0 324 0;
#X connect 323 0 327 0;
#X connect 327 0 325 0;
#X connect 327 0 328 0;
#X connect 328 0 326 0;
#X connect 328 0 329 0;
#X connect 329 0 331 0;
#X connect 329 0 333 0;
#X connect 333 0 330 0;
#X connect 333 0 334 0;
#X connect 334 0 332 0;
#X connect 334 0 346 0;
#X connect 336 0 335 0;
#X connect 336 0 337 0;
#X connect 337 0 338 0;
#X connect 337 0 339 0;
#X connect 339 0 340 0;
#X connect 339 0 341 0;
#X connect 341 0 342 0;
#X connect 341 0 343 0;
#X connect 343 0 344 0;
#X connect 343 0 370 0;
#X connect 346 0 348 0;
#X connect 346 0 345 0;
#X connect 348 0 347 0;
#X connect 348 0 336 0;
#X connect 349 0 367 0;
#X connect 349 0 351 0;
#X connect 349 0 353 0;
#X connect 353 0 352 0;
#X connect 354 0 368 0;
#X connect 354 0 356 0;
#X connect 354 0 362 0;
#X connect 358 0 369 0;
#X connect 358 0 360 0;
#X connect 358 0 363 0;
#X connect 362 0 357 0;
#X connect 363 0 361 0;
#X connect 364 0 349 0;
#X connect 365 0 354 0;
#X connect 366 0 358 0;
#X connect 367 0 350 0;
#X connect 368 0 355 0;
#X connect 369 0 359 0;
#X connect 370 0 371 0;
#X connect 370 0 372 0;
#X connect 372 0 373 0;
#X connect 372 0 374 0;
#X connect 374 0 375 0;
#X connect 374 0 456 0;
#X connect 376 0 410 0;
#X connect 376 0 408 0;
#X connect 379 0 380 0;
#X connect 379 0 381 0;
#X connect 381 0 382 0;
#X connect 381 0 383 0;
#X connect 383 0 384 0;
#X connect 383 0 392 0;
#X connect 385 0 386 0;
#X connect 385 0 389 0;
#X connect 386 0 390 0;
#X connect 386 0 394 0;
#X connect 387 0 385 0;
#X connect 387 0 388 0;
#X connect 391 0 378 0;
#X connect 391 0 402 0;
#X connect 392 0 393 0;
#X connect 392 0 387 0;
#X connect 394 0 395 0;
#X connect 394 0 391 0;
#X connect 397 0 398 0;
#X connect 397 0 399 0;
#X connect 399 0 400 0;
#X connect 399 0 401 0;
#X connect 401 0 462 0;
#X connect 401 0 463 0;
#X connect 402 0 405 0;
#X connect 402 0 406 0;
#X connect 404 0 396 0;
#X connect 404 0 397 0;
#X connect 406 0 407 0;
#X connect 406 0 414 0;
#X connect 409 0 377 0;
#X connect 409 0 379 0;
#X connect 410 0 411 0;
#X connect 410 0 412 0;
#X connect 412 0 413 0;
#X connect 412 0 415 0;
#X connect 414 0 403 0;
#X connect 414 0 404 0;
#X connect 415 0 416 0;
#X connect 415 0 409 0;
#X connect 417 0 459 0;
#X connect 417 0 458 0;
#X connect 418 0 420 0;
#X connect 418 0 421 0;
#X connect 421 0 422 0;
#X connect 421 0 423 0;
#X connect 422 0 424 0;
#X connect 422 0 426 0;
#X connect 426 0 425 0;
#X connect 426 0 428 0;
#X connect 428 0 427 0;
#X connect 428 0 429 0;
#X connect 429 0 433 0;
#X connect 429 0 434 0;
#X connect 430 0 436 0;
#X connect 430 0 431 0;
#X connect 431 0 438 0;
#X connect 431 0 437 0;
#X connect 432 0 440 0;
#X connect 432 0 441 0;
#X connect 434 0 435 0;
#X connect 434 0 430 0;
#X connect 437 0 439 0;
#X connect 437 0 432 0;
#X connect 441 0 442 0;
#X connect 441 0 446 0;
#X connect 444 0 445 0;
#X connect 444 0 469 0;
#X connect 446 0 443 0;
#X connect 446 0 444 0;
#X connect 448 0 447 0;
#X connect 450 0 449 0;
#X connect 452 0 323 0;
#X connect 453 0 451 0;
#X connect 455 0 376 0;
#X connect 456 0 454 0;
#X connect 457 0 417 0;
#X connect 458 0 460 0;
#X connect 458 0 461 0;
#X connect 461 0 418 0;
#X connect 461 0 419 0;
#X connect 463 0 464 0;
#X connect 463 0 465 0;
#X connect 465 0 467 0;
#X connect 465 0 468 0;
#X connect 468 0 466 0;
#X connect 469 0 481 0;
#X connect 470 0 471 0;
#X connect 472 0 474 0;
#X connect 473 0 6 1;
#X connect 474 0 473 0;
#X connect 475 0 476 0;
#X connect 475 0 479 0;
#X connect 476 0 475 1;
#X connect 477 0 478 0;
#X connect 478 0 475 1;
#X connect 479 0 482 0;
#X connect 479 0 484 0;
#X connect 480 0 475 0;
#X connect 482 0 483 0;
#X connect 484 0 487 0;
#X connect 484 0 488 0;
#X connect 485 0 486 0;
#X connect 486 0 4 0;
#X connect 486 0 4 1;
